{
  "asset": {
    "generator": "EscapeRoomGenerator",
    "version": "2.0"
  },
  "scene": 0,
  "scenes": [
    {
      "nodes": [
        0,
        1,
        2
      ]
    }
  ],
  "nodes": [
    {
      "mesh": 0,
      "name": "DoorFrame",
      "translation": [
        0,
        1,
        0
      ],
      "scale": [
        1,
        2,
        0.1
      ]
    },
    {
      "mesh": 1,
      "name": "DoorHandle",
      "translation": [
        0.8,
        1,
        0.05
      ],
      "scale": [
        0.1,
        0.1,
        0.1
      ]
    },
    {
      "mesh": 2,
      "name": "DoorPanel",
      "translation": [
        0,
        1,
        0.02
      ],
      "scale": [
        0.9,
        1.8,
        0.05
      ]
    }
  ],
  "meshes": [
    {
      "primitives": [
        {
          "attributes": {
            "POSITION": 0,
            "NORMAL": 1,
            "TEXCOORD_0": 2
          },
          "indices": 3,
          "material": 0
        }
      ]
    },
    {
      "primitives": [
        {
          "attributes": {
            "POSITION": 4,
            "NORMAL": 5,
            "TEXCOORD_0": 6
          },
          "indices": 7,
          "material": 1
        }
      ]
    },
    {
      "primitives": [
        {
          "attributes": {
            "POSITION": 8,
            "NORMAL": 9,
            "TEXCOORD_0": 10
          },
          "indices": 11,
          "material": 2
        }
      ]
    }
  ],
  "materials": [
    {
      "name": "WoodMaterial",
      "pbrMetallicRoughness": {
        "baseColorFactor": [
          1,
          1,
          1,
          1
        ],
        "baseColorTexture": {
          "index": 0
        },
        "metallicFactor": 0,
        "roughnessFactor": 0.8,
        "normalTexture": {
          "index": 3
        }
      }
    },
    {
      "name": "BrassMaterial",
      "pbrMetallicRoughness": {
        "baseColorFactor": [
          1,
          1,
          1,
          1
        ],
        "baseColorTexture": {
          "index": 1
        },
        "metallicFactor": 0.8,
        "roughnessFactor": 0.2
      }
    },
    {
      "name": "DoorPanelMaterial",
      "pbrMetallicRoughness": {
        "baseColorFactor": [
          1,
          1,
          1,
          1
        ],
        "baseColorTexture": {
          "index": 2
        },
        "metallicFactor": 0,
        "roughnessFactor": 0.9
      }
    }
  ],
  "textures": [
    {
      "source": 0
    },
    {
      "source": 1
    },
    {
      "source": 2
    },
    {
      "source": 3
    }
  ],
  "images": [
    {
      "name": "wood_texture",
      "uri": "data:image/png;base64,"
    },
    {
      "name": "brass_texture",
      "uri": "data:image/png;base64,"
    },
    {
      "name": "panel_texture",
      "uri": "data:image/png;base64,"
    },
    {
      "name": "normal_texture",
      "uri": "data:image/png;base64,"
    }
  ],
  "accessors": [
    {
      "bufferView": 0,
      "componentType": 5126,
      "count": 24,
      "type": "VEC3",
      "max": [
        1,
        1,
        1
      ],
      "min": [
        -1,
        -1,
        -1
      ]
    },
    {
      "bufferView": 1,
      "componentType": 5126,
      "count": 24,
      "type": "VEC3"
    },
    {
      "bufferView": 2,
      "componentType": 5126,
      "count": 24,
      "type": "VEC2"
    },
    {
      "bufferView": 3,
      "componentType": 5123,
      "count": 36,
      "type": "SCALAR"
    },
    {
      "bufferView": 4,
      "componentType": 5126,
      "count": 8,
      "type": "VEC3",
      "max": [
        1,
        1,
        1
      ],
      "min": [
        -1,
        -1,
        -1
      ]
    },
    {
      "bufferView": 5,
      "componentType": 5126,
      "count": 8,
      "type": "VEC3"
    },
    {
      "bufferView": 6,
      "componentType": 5126,
      "count": 8,
      "type": "VEC2"
    },
    {
      "bufferView": 7,
      "componentType": 5123,
      "count": 12,
      "type": "SCALAR"
    },
    {
      "bufferView": 8,
      "componentType": 5126,
      "count": 24,
      "type": "VEC3",
      "max": [
        1,
        1,
        1
      ],
      "min": [
        -1,
        -1,
        -1
      ]
    },
    {
      "bufferView": 9,
      "componentType": 5126,
      "count": 24,
      "type": "VEC3"
    },
    {
      "bufferView": 10,
      "componentType": 5126,
      "count": 24,
      "type": "VEC2"
    },
    {
      "bufferView": 11,
      "componentType": 5123,
      "count": 36,
      "type": "SCALAR"
    }
  ],
  "bufferViews": [
    {
      "buffer": 0,
      "byteOffset": 0,
      "byteLength": 288
    },
    {
      "buffer": 0,
      "byteOffset": 288,
      "byteLength": 288
    },
    {
      "buffer": 0,
      "byteOffset": 576,
      "byteLength": 192
    },
    {
      "buffer": 0,
      "byteOffset": 768,
      "byteLength": 72
    },
    {
      "buffer": 0,
      "byteOffset": 840,
      "byteLength": 96
    },
    {
      "buffer": 0,
      "byteOffset": 936,
      "byteLength": 96
    },
    {
      "buffer": 0,
      "byteOffset": 1032,
      "byteLength": 64
    },
    {
      "buffer": 0,
      "byteOffset": 1096,
      "byteLength": 24
    },
    {
      "buffer": 0,
      "byteOffset": 1120,
      "byteLength": 288
    },
    {
      "buffer": 0,
      "byteOffset": 1408,
      "byteLength": 288
    },
    {
      "buffer": 0,
      "byteOffset": 1696,
      "byteLength": 192
    },
    {
      "buffer": 0,
      "byteOffset": 1888,
      "byteLength": 72
    }
  ],
  "buffers": [
    {
      "byteLength": 1960,
      "uri": "data:application/octet-stream;base64,"
    }
  ]
}